<?xml version="1.0" encoding="iso-8859-1"?>
<!-- Generator: Adobe Illustrator 19.0.0, SVG Export Plug-In . SVG Version: 6.00 Build 0)  -->
<svg version="1.1" id="Capa_1" xmlns="http://www.w3.org/2000/svg" xmlns:xlink="http://www.w3.org/1999/xlink" x="0px" y="0px"
	 viewBox="0 0 206.445 206.445" style="enable-background:new 0 0 206.445 206.445;" xml:space="preserve">
<path d="M206.441,19.913c0.09-6.19-1.52-10.984-4.783-14.248l-0.556-0.556c-3.176-3.177-7.81-4.787-13.771-4.787
	c-13.165,0-29.559,8.002-36.609,15.476c-5.103,5.409-11.239,12.087-17.984,19.579L46.2,16.381c-0.75-0.165-1.561-0.249-2.407-0.249
	c-3.662,0-7.681,1.559-9.999,3.879L23.215,30.588c-1.702,1.701-2.461,3.866-2.082,5.938c0.379,2.073,1.854,3.83,4.047,4.819
	l73.326,33.103c-8.514,9.975-16.993,20.112-24.867,29.805C68.158,111,63.156,117.3,58.636,123.143l-43.076-4.307
	c-2.37-0.239-5.45,0.869-7.123,2.543l-6.952,6.952c-1.112,1.111-1.639,2.582-1.444,4.035s1.089,2.733,2.454,3.514l33.437,19.107
	c-9.113,14.779-8.389,19.074-6.085,21.378l0.556,0.556c0.962,0.963,2.28,1.45,3.918,1.45c3.492,0,9.506-2.765,17.217-7.478
	l18.707,32.736c0.893,1.561,2.43,2.493,4.11,2.493c1.261,0,2.481-0.526,3.438-1.483l6.952-6.952c1.688-1.687,2.782-4.75,2.543-7.124
	l-4.202-42.022c15.513-11.955,32.71-26.169,48.978-40.066l32.714,72.467c1.171,2.594,3.37,4.142,5.881,4.142
	c1.74,0,3.473-0.772,4.877-2.177l10.579-10.578c2.92-2.922,4.515-8.371,3.629-12.407L170.966,74.38
	c8.333-7.493,15.26-13.859,20.005-18.335C198.258,49.169,206.246,33.399,206.441,19.913z"/>
<g>
</g>
<g>
</g>
<g>
</g>
<g>
</g>
<g>
</g>
<g>
</g>
<g>
</g>
<g>
</g>
<g>
</g>
<g>
</g>
<g>
</g>
<g>
</g>
<g>
</g>
<g>
</g>
<g>
</g>
</svg>
