<?xml version="1.0" encoding="iso-8859-1"?>
<!-- Generator: Adobe Illustrator 19.0.0, SVG Export Plug-In . SVG Version: 6.00 Build 0)  -->
<svg version="1.1" id="Capa_1" xmlns="http://www.w3.org/2000/svg" xmlns:xlink="http://www.w3.org/1999/xlink" x="0px" y="0px"
	 viewBox="0 0 211 211" style="enable-background:new 0 0 211 211;" xml:space="preserve">
<path d="M196.333,52.5h-29.998l-15.204-28.252c-3.016-5.558-9.984-9.748-16.209-9.748H77.745c-6.087,0-13.207,4.337-16.216,9.884
	L46.368,52.5H15.333C7.049,52.5,0,59.216,0,67.5v114c0,8.284,7.049,15,15.333,15h181c8.284,0,14.667-6.716,14.667-15v-114
	C211,59.216,204.618,52.5,196.333,52.5z M50,92.5H18v-22h32V92.5z M106.333,174.707c-27.708,0-50.169-22.461-50.169-50.169
	c0-27.707,22.461-50.169,50.169-50.169s50.169,22.461,50.169,50.169C156.502,152.245,134.041,174.707,106.333,174.707z M193,92.5
	h-32v-22h32V92.5z"/>
<g>
</g>
<g>
</g>
<g>
</g>
<g>
</g>
<g>
</g>
<g>
</g>
<g>
</g>
<g>
</g>
<g>
</g>
<g>
</g>
<g>
</g>
<g>
</g>
<g>
</g>
<g>
</g>
<g>
</g>
</svg>
