<?xml version="1.0" encoding="iso-8859-1"?>
<!-- Generator: Adobe Illustrator 19.0.0, SVG Export Plug-In . SVG Version: 6.00 Build 0)  -->
<svg version="1.1" id="Capa_1" xmlns="http://www.w3.org/2000/svg" xmlns:xlink="http://www.w3.org/1999/xlink" x="0px" y="0px"
	 viewBox="0 0 244.352 244.352" style="enable-background:new 0 0 244.352 244.352;" xml:space="preserve">
<g>
	<circle cx="156.376" cy="97.748" r="10.403"/>
	<path d="M178.539,53h-8.363V23.719C170.176,10.485,159.772,0,146.539,0H98.479C85.245,0,74.176,10.485,74.176,23.719V53h-7.697
		c-9.908,0-18.303,8.062-18.303,17.97V207.03c0,9.908,8.395,17.97,18.303,17.97h0.406c1.494,10.914,10.872,19.352,22.19,19.352
		c11.317,0,20.696-8.438,22.189-19.352h22.492c1.493,10.914,10.872,19.352,22.189,19.352s20.696-8.438,22.189-19.352h0.406
		c9.908,0,17.637-8.062,17.637-17.97V70.97C196.176,61.062,188.447,53,178.539,53z M179.727,116.182l-43.925,47.741l-43.661-40.172
		l43.925-47.74l37.281,3.293L179.727,116.182z M96.176,23.719c0-1.084,1.219-1.719,2.303-1.719h48.061
		c1.084,0,1.637,0.635,1.637,1.719V53h-52V23.719z"/>
</g>
<g>
</g>
<g>
</g>
<g>
</g>
<g>
</g>
<g>
</g>
<g>
</g>
<g>
</g>
<g>
</g>
<g>
</g>
<g>
</g>
<g>
</g>
<g>
</g>
<g>
</g>
<g>
</g>
<g>
</g>
</svg>
