<?xml version="1.0" encoding="iso-8859-1"?>
<!-- Generator: Adobe Illustrator 19.0.0, SVG Export Plug-In . SVG Version: 6.00 Build 0)  -->
<svg version="1.1" id="Capa_1" xmlns="http://www.w3.org/2000/svg" xmlns:xlink="http://www.w3.org/1999/xlink" x="0px" y="0px"
	 viewBox="0 0 234.485 234.485" style="enable-background:new 0 0 234.485 234.485;" xml:space="preserve">
<g>
	<path d="M179.998,63.485H56.407c-5.449,0-11.664,3.769-11.664,9.856v149.177c0,5.928,6.052,11.967,11.664,11.967h42.336v-31h38v31
		h43.255c5.939,0,9.745-6.307,9.745-11.967V73.342C189.743,67.631,185.837,63.485,179.998,63.485z M89.743,185.485h-27v-20h27
		V185.485z M89.743,148.485h-27v-20h27V148.485z M89.743,111.485h-27v-19h27V111.485z M131.743,185.485h-28v-20h28V185.485z
		 M131.743,148.485h-28v-20h28V148.485z M131.743,111.485h-28v-19h28V111.485z M171.743,185.485h-26v-20h26V185.485z
		 M171.743,148.485h-26v-20h26V148.485z M171.743,111.485h-26v-19h26V111.485z"/>
	<path d="M54.183,33.237l9.325,6.825l-3.546,10.799c-0.578,1.756-0.107,2.941,0.389,3.627c1.115,1.541,3.323,1.84,5.217,0.465
		l9.334-6.767l9.339,6.811c0.825,0.602,1.673,0.907,2.519,0.907c1.087,0,2.072-0.498,2.702-1.367
		c0.497-0.686,0.969-1.871,0.395-3.626L86.291,39.98l9.308-6.723c1.826-1.303,2.062-3.064,1.672-4.28
		c-0.386-1.205-1.582-2.492-3.785-2.492l-11.599-0.004l-3.509-10.635c-0.862-2.651-2.875-2.857-3.472-2.857
		s-2.609,0.206-3.467,2.845l-3.515,10.651H56.328c-2.202,0-3.399,1.287-3.786,2.491C52.152,30.19,52.386,31.952,54.183,33.237z"/>
	<path d="M97.478,20.242l9.326,6.832l-3.548,10.801c-0.576,1.756-0.105,2.94,0.391,3.626c1.117,1.54,3.323,1.838,5.217,0.464
		l9.334-6.769l9.339,6.812c0.825,0.602,1.673,0.907,2.519,0.907c1.087,0,2.072-0.498,2.702-1.367
		c0.497-0.686,0.969-1.871,0.395-3.626l-3.564-10.933l9.308-6.726c1.826-1.303,2.062-3.067,1.672-4.283
		c-0.386-1.206-1.583-2.495-3.786-2.495l-11.602-0.005l-3.506-10.622C120.812,0.206,118.798,0,118.202,0
		c-0.596,0-2.609,0.206-3.466,2.845l-3.513,10.641H99.623c-2.202,0-3.399,1.288-3.785,2.494
		C95.448,17.195,95.681,18.96,97.478,20.242z"/>
	<path d="M139.132,28.977c-0.389,1.215-0.154,2.978,1.642,4.261l9.325,6.825l-3.547,10.801c-0.576,1.757-0.105,2.941,0.391,3.626
		c1.116,1.541,3.323,1.837,5.216,0.464l9.334-6.767l9.339,6.81c0.825,0.603,1.673,0.908,2.519,0.908
		c1.088,0,2.072-0.498,2.702-1.367c0.497-0.686,0.969-1.871,0.396-3.627l-3.565-10.93l9.309-6.723
		c1.826-1.302,2.061-3.064,1.672-4.279c-0.386-1.205-1.583-2.493-3.786-2.493l-11.6-0.005l-3.508-10.634
		c-0.862-2.651-2.875-2.857-3.472-2.857s-2.609,0.206-3.467,2.845l-3.515,10.651h-11.598
		C140.716,26.485,139.519,27.772,139.132,28.977z"/>
</g>
<g>
</g>
<g>
</g>
<g>
</g>
<g>
</g>
<g>
</g>
<g>
</g>
<g>
</g>
<g>
</g>
<g>
</g>
<g>
</g>
<g>
</g>
<g>
</g>
<g>
</g>
<g>
</g>
<g>
</g>
</svg>
