<?xml version="1.0" encoding="iso-8859-1"?>
<!-- Generator: Adobe Illustrator 19.0.0, SVG Export Plug-In . SVG Version: 6.00 Build 0)  -->
<svg version="1.1" id="Capa_1" xmlns="http://www.w3.org/2000/svg" xmlns:xlink="http://www.w3.org/1999/xlink" x="0px" y="0px"
	 viewBox="0 0 226 226" style="enable-background:new 0 0 226 226;" xml:space="preserve">
<g>
	<path d="M125.131,66.594c-3.884,0-6.596,2.943-6.596,7.157c0,4.309,2.712,7.317,6.596,7.317c3.907,0,6.637-3.009,6.637-7.317
		C131.768,69.537,129.039,66.594,125.131,66.594z"/>
	<path d="M173.126,0H84.88c-8.861,0-16.047,6.854-16.047,15.716V40H52.666c-8.547,0-15.5,6.953-15.5,15.5S44.12,71,52.666,71h16.167
		v84H52.666c-8.547,0-15.5,6.953-15.5,15.5s6.953,15.5,15.5,15.5h16.167v24.284c0,8.861,7.186,15.716,16.047,15.716h88.246
		c8.861,0,15.707-6.854,15.707-15.716V15.716C188.833,6.854,181.988,0,173.126,0z M110.834,19h10v11h8V19h10v31h-10V39h-8v11h-10V19
		z M134.833,207h-20v-31h9v22h11V207z M135.833,168h-22v-32h22v9h-13v3h12v8h-12v3h13V168z M137.833,106h-8v23h-10v-23h-8v-9h26V106
		z M125.131,90.321c-9.811,0-16.931-6.969-16.931-16.57c0-9.615,6.962-16.33,16.931-16.33c9.992,0,16.972,6.715,16.972,16.33
		C142.103,83.353,134.965,90.321,125.131,90.321z"/>
</g>
<g>
</g>
<g>
</g>
<g>
</g>
<g>
</g>
<g>
</g>
<g>
</g>
<g>
</g>
<g>
</g>
<g>
</g>
<g>
</g>
<g>
</g>
<g>
</g>
<g>
</g>
<g>
</g>
<g>
</g>
</svg>
