<svg version="1.1" xmlns="http://www.w3.org/2000/svg" viewBox="0 0 17.296 17.296" xmlns:xlink="http://www.w3.org/1999/xlink" enable-background="new 0 0 17.296 17.296">
  <path fill="#030104" d="m11.121,11.751c.643-.063 1.453-.287 2.191-.911 1.225-1.037 1.795-2.799 1.695-5.237-.023-.592-.52-1.053-1.116-1.028-.593,.024-1.053,.523-1.029,1.116 .07,1.704-.248,2.914-.92,3.497-.264,.229-.559,.341-.821,.393-.076-4.077-.525-8.228-.525-8.228-.354-1.009-1.317-1.353-1.812-1.353h-.372c-.494,0-1.762,.573-1.812,1.353 0,0-.41,5.089-.513,8.207-.235-.058-.488-.166-.717-.358-.683-.579-1.007-1.793-.937-3.511 .025-.594-.436-1.093-1.029-1.117-.594-.025-1.091,.436-1.115,1.028-.1,2.438 .47,4.2 1.694,5.237 .705,.597 1.475,.826 2.102,.9 .098,2.409 .516,4.641 .516,4.641 0,.146 .039,.283 .101,.404-1.862,.164-3.022,.512-3.022,.512h9.938c-1.093-.268-2.141-.425-3.123-.51 .063-.123 .102-.261 .102-.406-.002,0 .448-1.062 .524-4.629z"/>
</svg>
