<svg version="1.1" xmlns="http://www.w3.org/2000/svg" viewBox="0 0 297.532 297.532" xmlns:xlink="http://www.w3.org/1999/xlink" enable-background="new 0 0 297.532 297.532">
  <path d="m172.643,276.755c0,0-12.659,.043-14.17-19.828 0,0-9.707-17.172-26.656-18.005-21.808-1.072-73.237-14.877-94.083-61.708 0,0-8.417-18.573-10.417-29.182 0,0-22.667-5.776-27.167-41.943 0,0-1.037-3.61 2.333-4.892 .99-.377 3.333,4.559 3.333,4.559s7.96,23.792 18,23.667c0,0-7.253-36.333 5.5-71.5 0,0 1.333-3.5 3.833-4s-.333,8-.333,8-9.667,43.406 7.667,86.109c0,0 1.833-18.144 14.167-30.627 0,0 3.833-4.149 5.833-3.816 2,.333 2.667,2.5 0,4.833 0,0-15.333,21-15.466,45.666 0,0 10.182,22.146 20.609,26.052 0,0-5.31-12.551 1.93-32.943 0,0 1.427-4.108 3.927-.941 0,0 1,1.5-.5,8.5 0,0-4,25.667 9.167,43.333 0,0 8.445,6.333 29.056,10.833 0,0-7.144-7.633-12.722-17.817 0,0-18.167-5.85-18.5-21.183 0,0 .532-3.387 3.099-.443 0,0 1.234,4.277 3.234,6.443 2,2.167 8.449,3.315 8.449,3.315s-23.116-21.481-18.282-85.815c0,0-19.25-.167-18.417-28.333 0,0 .333-5.167 4.25-4.5 0,0 3.333-.167 3.167,7.5 0,0 .667,10.833 12.833,11.833 0,0 2.667-16.5 24.333-63.333 0,0 3.91-6.91 8.159-5.66 0,0 5.299,1.112 .174,13.16 0,0-32.833,62.167-23.167,111.833 0,0 10.24-25.333 5.203-39.833 0,0-1.028-5.753 3.135-3.043 0,0 6.829,7.21 5.829,22.043 0,0-1.167,20.667-11.667,34.25 0,0 11.479,32.25 24.739,43.583 0,0 2.206-8.903-3.85-20.368 0,0-2.444-4.215 0-5.34s9.076,10.511 10.444,20.608c0,0 1.263,9.934-1.535,18.934 0,0 5.812,6.021 9.645,7.003 0,0 5.636,1.436 10.224,1.33 0,0-16-18-21.5-49.5 0,0-16.615-11.51-17.5-29.5 0,0-.449-5.234 2.026-5.7 0,0 2.308-.133 2.474,5.7 .167,5.833 9.573,14.5 9.573,14.5s-3.594-13.833 0-39c0,0 .052-4.368 2.573-4.184 2.521,.184 2.486,6.945 2.486,6.945s-4.994,44.739 10.77,70.739c0,0 7.667-17.333 3.549-45.5 0,0-.118-3 2.382-3.333 2.5-.333 2,6.75 2,6.75s4.527-11.583 2.597-19.75c0,0-15.097-4.167-18.43-34.167 0,0-.5-4.833 1.5-5 2-.167 2.333,5.333 2.333,5.333s2.694,21.5 14.597,27.167c0,0 1.236-6.667-2.097-13 0,0-.667-5.5 4.167-2 4.833,3.5 9.68,39.333-2.07,54.333 0,0 3.109,21.349-5.264,38.917 0,0 1.958,7 17.333,23 0,0 2.833-9.423 2.167-12.753 0,0-10.5-9.592-10.333-30.961 0,0 0-4.772 3.667-1.57 0,0 1,2.368 1,6.035 0,0 1.667,10.2 6.667,12.517 0,0 6.583-98.767-32.167-135.767 0,0-4.5-4.25-2.5-6.75s7.25,4.5 7.25,4.5 8.424,6.985 12.18,12.25c0,0 1.321-7-3.43-15.25-4.751-8.25 2.249-5.667 2.249-5.667s11.249,3.413 9.5,37.417c0,0 14.5,25.793 14,52.771 0,0 7.75-8.069-1-35.67 0,0-9-29.101 7.5-37.851 0,0 13.25-8.25 8.5,.25 0,0-16.417,12.417-10.601,30.917 0,0 13.351,45.484-5.315,65.232 0,0 3.167,49.935-.833,67.268l3.333,1.219c0,0-3.976-15.874 8-42.816 0,0-5.697-12.403-1.182-27.737 0,0 .5-3.328 2.507-4.081 2.008-.753 1.008,5.175 1.008,5.175s-.5,16.284 3.167,18.261c0,0 8.667-9.689-1.667-53.439 0,0-1.333-5.417 1-6.25 2.333-.833 4.068,6.25 4.068,6.25s5.432,13.753 5.765,30.003c0,0 7.66-8.086 6.33-23.919 0,0-.165-5.5 3.669-6.083 3.834-.583 3.501,15.997 3.501,15.997s-2.5,16.587-11.647,23.662c0,0-.019,11.924-9.686,28.758 0,0-6.015,13.333-5.508,18.833 0,0 7.508-7 8.508-11.75 0,0 1-4.083 3.083-3.75 0,0 7.279,2.375-1,14.625 0,0-1.25,4.25-12.272,11.976 0,0-.978,3.679-.619,7.899 0,0 6.765-7.125 20.64-13 0,0-1.75-8.375 0-17.75 0,0-3.75-14.583-1.25-26.917 0,0 .433-3.958 1.779-4.083 1.346-.125 3.194,1.375 2.77,4.75 0,0-.826,5.375 0,7.75 0,0 4.033-16.542 11.617-23.583 7.584-7.042 5.959-29.167-1.541-42.542 0,0-17.75-23.375-14.375-40.625 0,0 .75-4.375 3-4.625s2,6.125 2,6.125-.125,17.625 11.125,31.75c0,0 17.815,21.233 10.231,44.5 0,0-12.149,22.125-10.44,26.375 0,0 7.593-6.875 8.963-13.5 1.37-6.625 3.356-3.117 3.356-3.117s2.514,1.676 .889,5.084c0,0-5.136,18.81-22,26.925 0,0 2.057,14.857 3.25,19.108 0,0 6.759,.625 14.505-8.5 0,0-4.962-8.75-.983-20 0,0 .729-2.306 3.104-2.153 2.375,.153 .833,7.528 .833,7.528s.063,6.815 2.542,7.75c0,0 13.534-17.152 12.819-43.497 0,0-.194-27.919-4.194-31.919-4-4-19.333-13.333-19.333-46.333 0,0-.167-5.667 2.333-6.667s1.896,6.667 1.896,6.667 2.437,18 12.104,26.833c0,0-9.988-37.167 8.756-78.833 0,0 2.744-5.5 6.744-4.5 0,0 2.869,2.5-1.982,7.5 0,0-9.685,18.333-7.518,42.833 0,0 7.74-8.979 5.5-20.333 0,0-.667-6.333 3.167-7.833 3.833-1.5 3.833,15 3.833,15s.002,12.333-10.92,27.529c0,0 .92,25.221 6.253,44.679l2-11.614c0,0-.167-4.261 2.667-4.927 2.833-.667 4.077,17.154-3.333,29.234 0,0 2.167,45.193-13.667,62.396 0,0 18.814-11.54 19.833-14.485 0,0-6.667-39.713 4.167-56.179 0,0 2.333-5.3 5-5.633 2.667-.333 2.927,4.375-1,10.208 0,0-6.875,13.875-1.073,44.597 0,0 7.994-7.901 9.408-11.722 0,0-6.21-15.614 1.04-25.869 0,0 2.375-3.871 4.125-3.313 1.75,.558 0,6.396 0,6.396s-1.25,11.287 1.375,16.412c0,0 7.875-18.875 5.792-41.625 0,0-14.667-2.625-14.917-37.625 0,0-.454-5.542 2.565-7.042 3.019-1.5 2.602,7.417 2.602,7.417s.667,17.333 8.833,23c0,0-10.667-39.5 3.917-69.25 0,0 3.333-5.083 7.25-4.25 0,0 3,1.667-2.833,7.25 0,0-5.583,6.167-3.5,50 0,0 5.167-8.583 5.583-19 0,0-.583-4.5 2.5-5.417 3.083-.917 2.083,7.333 2.083,7.333s1.272,16.333-10.019,30.333c0,0 6.061,25.75 1.519,47.5 0,0 10-12.625 10.5-30.875 0,0-.375-5.5 2.375-6.125s2.875,5.126 2.875,5.126 2.251,34.994-24.125,50.749c0,0-15.375,29.375-53.625,46.875 0,0-9.75,4.31-17.5,7.53 0,0-18,5.97-25.75,20.22 0,0-2.75,8.25 .75,13 .003-.003 7.071,8.581-4.588,10.164z"/>
  <path d="m230.548,68.359c0,0-5.03-16.033-17.124-19.418 0,0-4.284-1.506-5.291,.031-1.006,1.537 4.034,4.963 4.034,4.963s11.277,7.769 15.243,29.111"/>
</svg>
